<?xml version="1.0" encoding="UTF-8" standalone="no"?>
<!-- Created with Inkscape (http://www.inkscape.org/) -->

<svg
   version="1.1"
   id="svg1"
   width="275.54666"
   height="489.81332"
   viewBox="0 0 275.54666 489.81332"
   sodipodi:docname="Brasão Extenso - RGB.eps"
   xmlns:inkscape="http://www.inkscape.org/namespaces/inkscape"
   xmlns:sodipodi="http://sodipodi.sourceforge.net/DTD/sodipodi-0.dtd"
   xmlns="http://www.w3.org/2000/svg"
   xmlns:svg="http://www.w3.org/2000/svg">
  <defs
     id="defs1" />
  <sodipodi:namedview
     id="namedview1"
     pagecolor="#ffffff"
     bordercolor="#000000"
     borderopacity="0.25"
     inkscape:showpageshadow="2"
     inkscape:pageopacity="0.0"
     inkscape:pagecheckerboard="0"
     inkscape:deskcolor="#d1d1d1">
    <inkscape:page
       x="0"
       y="0"
       inkscape:label="1"
       id="page1"
       width="275.54666"
       height="489.81332"
       margin="0"
       bleed="0" />
  </sodipodi:namedview>
  <g
     id="g1"
     inkscape:groupmode="layer"
     inkscape:label="1">
    <g
       id="group-R5">
      <path
         id="path2"
         d="m 167.488,919.77 h 40.91 V 763.621 c 0,-12.351 3.75,-22.402 11.317,-30.211 7.578,-7.699 17.93,-11.57 31.133,-11.57 14.8,0 26.289,3.789 34.496,11.359 8.277,7.61 12.328,17.973 12.328,31.231 v 155.34 h 40.906 v -158.5 c 0,-23.668 -7.937,-42.211 -23.82,-55.571 -15.879,-13.449 -37.086,-20.238 -63.578,-20.238 -26.735,0 -47.336,6.668 -61.907,19.668 -14.445,13.172 -21.785,31.902 -21.785,56.293 V 919.77 Z M 501.887,686.871 412.508,803.59 V 689.32 h -31.453 v 184.391 h 15.711 L 483.762,762.52 v 111.191 h 31.422 v -186.84 h -13.297 z m 51.691,186.84 h 32.762 v -184.25 h -32.762 v 184.25 z m 139.719,-186.84 h -17.984 l -68.872,186.84 h 35.942 l 42.687,-124.52 45.016,124.52 h 35.215 L 693.297,686.871 Z M 817.512,844.652 V 801.48 h 60.843 v -27.8 h -60.843 v -55.25 h 83.496 V 689.461 H 784.82 v 184.25 h 117.59 v -29.059 h -84.898 z m 217.718,-155.191 -49.207,76.07 c -4.925,0.141 -11.859,0.371 -20.769,0.848 v -76.918 h -33.902 v 184.25 c 1.777,0 8.882,0.301 21.234,0.918 12.273,0.691 22.277,0.941 29.75,0.941 46.834,0 70.214,-18.09 70.214,-54.281 0,-10.98 -3.21,-20.848 -9.71,-29.867 -6.43,-8.863 -14.54,-15.231 -24.33,-18.992 l 54.45,-82.969 h -37.73 z m -69.976,155.828 v -51.18 c 6.062,-0.507 10.652,-0.777 13.84,-0.777 13.699,0 23.676,1.938 30.006,5.77 6.34,3.918 9.48,11.39 9.48,22.507 0,9.039 -3.38,15.411 -10.18,19.032 -6.77,3.55 -17.447,5.418 -32.029,5.418 -3.516,0 -7.266,-0.297 -11.117,-0.77 z m 114.636,-145.648 12.06,29.238 c 12.89,-9.027 25.63,-13.5 38.08,-13.5 19.17,0 28.78,6.672 28.78,20.062 0,6.34 -2.24,12.34 -6.76,18.071 -4.52,5.699 -13.83,12.019 -28,19.129 -14.15,7.089 -23.59,12.968 -28.55,17.468 -4.89,4.602 -8.64,10.039 -11.32,16.321 -2.62,6.281 -3.92,13.242 -3.92,20.84 0,14.281 5.19,26.101 15.61,35.519 10.44,9.41 23.85,14.063 40.2,14.063 21.3,0 36.95,-3.954 46.93,-11.891 l -9.95,-28.242 c -11.48,8.242 -23.61,12.32 -36.31,12.32 -7.57,0 -13.43,-1.98 -17.59,-5.988 -4.11,-3.961 -6.2,-9.121 -6.2,-15.512 0,-10.508 11.7,-21.539 35.11,-32.957 12.33,-6.031 21.17,-11.621 26.64,-16.652 5.42,-5.059 9.64,-10.981 12.46,-17.75 2.84,-6.668 4.25,-14.278 4.25,-22.578 0,-14.93 -5.86,-27.172 -17.69,-36.793 -11.72,-9.668 -27.6,-14.539 -47.3,-14.539 -17.25,0 -32.76,4.46 -46.53,13.371 z m 141.06,174.07 h 32.74 v -184.25 h -32.74 v 184.25 z m 111.96,-184.25 h -40.83 v 184.141 c 26.09,0.867 42.44,1.378 49.18,1.378 26.79,0 48.11,-7.871 63.78,-23.609 15.75,-15.68 23.64,-36.562 23.64,-62.59 0,-66.222 -31.95,-99.32 -95.77,-99.32 z m -8.14,155.559 V 719.211 c 5.22,-0.481 10.99,-0.781 17.09,-0.781 16.55,0 29.48,6.07 38.78,18.062 9.39,11.957 14.05,28.77 14.05,50.328 0,39.41 -18.33,59.09 -54.95,59.09 -3.54,0 -8.5,-0.32 -14.97,-0.89 z m 240.33,-155.559 -13.43,37.348 h -63.18 l -12.84,-37.348 h -36.34 l 73.47,186.789 h 14.36 l 74.07,-186.789 h -36.11 z m -45.16,130.398 -22.1,-67.949 h 44.27 l -22.17,67.949 z m 141.63,-130.398 h -40.86 v 184.141 c 26.1,0.867 42.48,1.378 49.17,1.378 26.84,0 48.11,-7.871 63.83,-23.609 15.7,-15.68 23.61,-36.562 23.61,-62.59 0,-66.222 -31.96,-99.32 -95.75,-99.32 z m -8.16,155.559 V 719.211 c 5.25,-0.481 10.99,-0.781 17.15,-0.781 16.51,0 29.45,6.07 38.75,18.062 9.36,11.957 14.01,28.77 14.01,50.328 0,39.41 -18.26,59.09 -54.94,59.09 -3.54,0 -8.54,-0.32 -14.97,-0.89 z m 165.51,-0.368 V 801.48 h 60.85 v -27.8 h -60.85 v -55.25 h 83.52 v -28.969 h -116.21 v 184.25 h 117.59 v -29.059 h -84.9 z M 542.723,540.301 v -53.93 h 80.996 v -34.73 H 542.723 V 346.289 H 501.852 V 576.66 H 653.641 V 540.301 H 542.723 Z m 174.996,-38.77 v -43.152 h 60.871 v -27.777 h -60.871 v -55.243 h 83.523 v -29.07 H 685.07 v 184.352 h 117.575 v -29.11 H 717.719 Z M 872.418,346.289 h -40.859 v 184.109 c 26.097,0.934 42.437,1.403 49.171,1.403 26.84,0 48.083,-7.809 63.782,-23.551 15.75,-15.699 23.617,-36.539 23.617,-62.539 0,-66.289 -31.922,-99.422 -95.711,-99.422 z m -8.199,155.633 V 376.109 c 5.297,-0.468 11.027,-0.75 17.148,-0.75 16.524,0 29.488,5.973 38.801,18.063 9.344,11.887 13.996,28.738 13.996,50.219 0,39.398 -18.289,59.129 -54.934,59.129 -3.554,0 -8.546,-0.309 -15.011,-0.848 z m 165.521,-0.391 v -43.152 h 60.87 v -27.777 h -60.87 v -55.243 h 83.52 v -29.07 H 997.078 v 184.352 h 117.552 v -29.11 h -84.89 z m 217.72,-155.242 -49.19,76.082 c -4.95,0.168 -11.86,0.43 -20.8,0.891 v -76.973 h -33.9 v 184.352 c 1.81,0 8.88,0.269 21.27,0.898 12.27,0.59 22.27,0.961 29.75,0.961 46.83,0 70.21,-18.168 70.21,-54.398 0,-10.852 -3.2,-20.832 -9.71,-29.75 -6.43,-8.961 -14.54,-15.34 -24.35,-19.012 l 54.47,-83.051 h -37.75 z m -69.99,155.863 V 450.93 c 6.1,-0.399 10.69,-0.688 13.87,-0.688 13.7,0 23.69,1.899 29.98,5.789 6.38,3.809 9.51,11.278 9.51,22.508 0,9.043 -3.37,15.371 -10.17,18.922 -6.78,3.621 -17.46,5.437 -32.06,5.437 -3.53,0 -7.23,-0.277 -11.13,-0.746 z m 222.91,-155.863 h 36.12 l -74.08,186.781 h -14.36 l -73.44,-186.781 h 36.31 l 12.87,37.34 h 63.15 l 13.43,-37.34 z m -45.12,130.41 22.14,-67.98 h -44.25 l 22.11,67.98 z m 100.76,-130.41 v 184.352 h 32.7 V 375.359 H 1572 v -29.07 H 1456.02 Z M 40.8594,3.14844 H 0 V 187.332 c 26.0938,0.906 42.4336,1.379 49.1719,1.379 26.832,0 48.0703,-7.859 63.7771,-23.531 15.715,-15.758 23.66,-36.68 23.66,-62.571 0,-66.3277 -31.929,-99.46056 -95.7496,-99.46056 z M 32.6914,158.789 V 32.9688 c 5.2656,-0.5196 10.9844,-0.7774 17.1094,-0.7774 16.5273,0 29.4844,6 38.8047,18.0195 9.3398,11.9883 14.0355,28.7813 14.0355,50.2891 0,39.449 -18.3285,59.152 -54.9691,59.152 -3.5586,0 -8.5508,-0.332 -14.9805,-0.863 z M 198.211,158.422 V 115.23 h 60.836 V 87.4219 H 198.211 V 32.1914 h 83.516 V 3.14844 H 165.512 V 187.461 h 117.59 V 158.422 H 198.211 Z M 454.617,87.9102 V 3.14844 H 413.719 V 233.352 c 27.261,1.207 43.203,1.687 47.828,1.687 36.383,0 62.949,-5.559 79.797,-16.73 16.816,-11.11 25.234,-28.571 25.234,-52.258 0,-52.852 -31.16,-79.1994 -93.406,-79.1994 -4.617,0 -10.785,0.3789 -18.555,1.0586 z m 0,110.1018 v -73.731 c 6.93,-0.761 12.395,-1.211 16.356,-1.211 18.726,0 32.281,3.149 40.898,9.43 8.609,6.199 12.895,16.359 12.895,30.441 0,23.93 -19.262,35.821 -57.719,35.821 -4.258,0 -8.442,-0.211 -12.43,-0.75 z m 176.074,-39.59 V 115.23 h 60.872 V 87.4219 H 630.691 V 32.1914 h 83.516 V 3.14844 H 598.027 V 187.461 H 715.574 V 158.422 H 630.691 Z M 848.406,3.14844 799.199,79.3008 c -4.929,0.1289 -11.859,0.3203 -20.738,0.8906 V 3.14844 H 744.488 V 187.461 c 1.848,0 8.953,0.269 21.278,0.91 12.297,0.641 22.234,1 29.777,1 46.809,0 70.184,-18.109 70.184,-54.359 0,-10.922 -3.184,-20.821 -9.688,-29.821 -6.426,-8.9215 -14.535,-15.2496 -24.348,-18.9918 L 886.16,3.14844 H 848.406 Z M 778.461,159.02 v -51.18 c 6.066,-0.481 10.648,-0.738 13.805,-0.738 13.734,0 23.683,1.898 30.011,5.757 6.332,3.821 9.512,11.321 9.512,22.481 0,9.082 -3.383,15.41 -10.223,19.031 -6.753,3.551 -17.449,5.461 -32.015,5.461 -3.551,0 -7.274,-0.301 -11.09,-0.812 z M 1022.71,0.699219 933.332,117.32 V 3.05078 H 901.84 V 187.461 h 15.742 L 1004.58,76.2695 V 187.461 h 31.45 V 0.699219 h -13.32 z M 1181.3,3.14844 1167.89,40.5391 h -63.18 l -12.8,-37.39066 h -36.34 L 1129,189.871 h 14.34 L 1217.41,3.14844 H 1181.3 Z M 1136.2,133.629 1114.06,65.6289 h 44.29 L 1136.2,133.629 Z M 1408.75,3.05078 h -31.68 L 1357.9,102.398 1320.82,0.699219 h -11.66 L 1272.01,102.398 1252.15,3.05078 h -31.56 l 37.08,184.41022 h 17.42 l 39.84,-124.2227 38.99,124.2227 h 17.22 L 1408.75,3.05078 Z m 76.52,0.09766 h -56.34 V 187.332 c 24.78,1.156 42.17,1.727 52.15,1.727 19.13,0 34.07,-4.02 44.85,-12.188 10.8,-8.199 16.18,-19.82 16.18,-35.109 0,-14.563 -7.73,-26.102 -23.13,-34.532 22.84,-8.0503 34.36,-24.3902 34.36,-49.2808 0,-16.8398 -6.37,-30.1484 -19.03,-40.0195 C 1521.65,8.10938 1505.27,3.14844 1485.27,3.14844 Z M 1461.62,161.199 v -44.148 c 5.02,-0.371 10.28,-0.512 15.81,-0.512 21.31,0 31.99,7.949 31.99,24 0,14.113 -9.71,21.231 -29.07,21.231 -5.09,0 -11.39,-0.141 -18.73,-0.571 z m 0,-69.7068 V 30.5898 c 6.6,-0.5507 11.96,-0.8398 16.07,-0.8398 14.61,0 25.17,2.4414 31.8,7.4023 6.5,4.9297 9.88,13.129 9.88,24.629 0,10.539 -3.08,18.1093 -9.18,22.9296 -6.12,4.7305 -16.89,7.1094 -32.09,7.1094 -3.18,0 -8.75,-0.0703 -16.48,-0.3281 z m 120.6,95.9688 h 32.73 V 62.582 c 0,-9.8906 2.98,-17.9297 9.08,-24.2031 5.96,-6.1875 14.3,-9.3086 24.89,-9.3086 11.79,0 21.01,3.0195 27.56,9.1211 6.6,6.1289 9.85,14.3984 9.85,24.9805 V 187.461 h 32.77 V 60.6484 c 0,-18.9062 -6.4,-33.7578 -19.09,-44.5273 C 1687.34,5.39844 1670.39,0 1649.16,0 c -21.38,0 -37.86,5.33203 -49.53,15.7383 -11.58,10.5117 -17.41,25.5039 -17.41,45.0234 V 187.461 Z m 300.86,-9.82 -13.44,-27 c -7.3,7.218 -19.02,10.918 -35.24,10.918 -15.3,0 -27.9,-6.5 -37.72,-19.36 -9.78,-12.82 -14.73,-29.129 -14.73,-48.8279 0,-19.75 4.54,-35.3125 13.66,-46.9023 9.08,-11.6094 21.2,-17.3985 36.42,-17.3985 17.38,0 30.95,6.1719 40.76,18.6289 l 15.22,-26.3906 C 1874.68,7.10938 1855.1,0 1829.38,0 c -25.76,0 -45.7,8.5 -59.97,25.4297 -14.27,16.9101 -21.4,40.0508 -21.4,69.3398 0,27.1995 7.94,50.0825 23.68,68.3325 15.81,18.308 36.09,27.507 60.7,27.507 21.18,0 38.06,-4.308 50.69,-12.968 z m 22.54,-80.7191 c 0,26.1481 7.17,48.3871 21.55,66.5901 14.41,18.09 33.66,27.226 57.67,27.226 26.54,0 46.77,-8.187 60.78,-24.687 13.97,-16.41 21,-39.531 21,-69.1291 0,-29.6836 -7.34,-53.2305 -21.94,-70.7227 C 2030.04,8.78125 2009.27,0 1982.34,0 c -24.76,0 -43.68,8.64063 -56.88,25.9219 -13.2,17.2578 -19.84,40.9765 -19.84,71 z m 33.94,0 c 0,-21.5508 3.65,-38.2735 10.95,-50.1016 7.3,-11.8398 17.92,-17.75 31.83,-17.75 16.38,0 28.81,5.7891 37.41,17.3985 8.62,11.5898 12.91,28.3632 12.91,50.4531 0,43.1681 -15.92,64.7771 -47.82,64.7771 -14.56,0 -25.74,-5.937 -33.59,-17.551 -7.76,-11.699 -11.69,-27.468 -11.69,-47.2261 v 0"
         style="fill:#171818;fill-opacity:1;fill-rule:evenodd;stroke:none"
         transform="matrix(0.13333333,0,0,-0.13333333,0,489.81333)" />
      <path
         id="path3"
         d="m 231.105,1515.72 c 555.028,125.66 1153.665,95.94 1592.035,0 l -27.03,-156.17 c 31.26,-5.77 63.95,-12.5 97.08,-20.07 l -44.73,-216.36 c -58.22,15.34 -236.5,47.15 -301.89,50.6 l 218.38,59.67 v 3.74 C 1335.69,1327.85 794.473,1351 282.797,1235.84 v -2.45 l 219.824,-59.55 c -64.223,-3.05 -244.683,-35.26 -303.301,-50.72 l -44.765,216.36 c 35.379,8.18 70.179,15.2 103.351,21.21 l -26.801,155.03 z m 353.086,1631.53 c -39.425,-0.3 -164.98,22.68 -165.66,105.89 -0.265,31.63 26.239,61.26 41.985,88.53 97.144,130.21 151.953,189.83 83.242,311.33 21.375,-3.74 53.961,-33.66 70.851,-55.51 29.817,-51.36 32.621,-104.72 13.496,-163.97 -20.128,-49.35 -86.089,-111 -65.382,-167.6 19.386,-52.89 86.988,-57.15 65.05,-1.47 -11.351,28.6 -25.429,31.46 -16.574,64.54 14.297,53.37 83.043,120.97 52.918,185.2 69.281,-39.54 26.742,-147.3 33.278,-166.03 3.644,-15.67 57.171,-63.18 53.191,-95.37 -9.777,-79 -101.535,-109.18 -166.395,-105.54 z m 441.999,20.6 c -39.436,-0.26 -165.018,22.76 -165.694,105.9 -0.23,31.57 26.262,61.32 42.012,88.57 97.152,130.16 151.992,189.83 83.25,311.32 21.332,-3.79 53.962,-33.67 70.852,-55.61 29.77,-51.18 32.59,-104.64 13.46,-163.91 -20.13,-49.32 -86.062,-110.99 -65.36,-167.6 19.36,-52.86 87,-57.12 65.03,-1.54 -11.36,28.67 -25.39,31.55 -16.51,64.65 14.26,53.33 82.97,120.92 52.89,185.08 69.27,-39.41 26.73,-147.2 33.26,-166.02 3.66,-15.58 57.15,-63.12 53.17,-95.28 -9.79,-79.05 -101.51,-109.18 -166.36,-105.56 z m 441.96,-20.6 c -39.4,-0.3 -164.99,22.68 -165.65,105.89 -0.27,31.63 26.22,61.26 41.97,88.53 97.15,130.21 151.99,189.83 83.25,311.33 21.36,-3.74 53.99,-33.66 70.88,-55.51 29.79,-51.36 32.6,-104.72 13.47,-163.97 -20.14,-49.35 -86.1,-111 -65.36,-167.6 19.33,-52.89 86.99,-57.15 64.99,-1.47 -11.33,28.6 -25.36,31.46 -16.49,64.54 14.24,53.37 82.95,120.97 52.87,185.2 69.27,-39.54 26.77,-147.3 33.3,-166.03 3.68,-15.67 57.15,-63.18 53.16,-95.37 -9.78,-79 -101.54,-109.18 -166.39,-105.54 z m -1103.212,-1816.4 23.218,4.24 20.133,121.7 -16.687,-3.05 -15.645,-94.19 -47.066,82.84 -24.731,-4.56 60.778,-106.98 z m 78.589,15.1 23.286,3.44 -15.715,115.14 -23.25,-3.41 15.679,-115.17 z m 51.86,9.41 21.968,2.78 -5.625,47.19 12.836,1.59 33.461,-43.58 28.446,3.5 -43.153,49.28 c 6.571,4.1 11.395,9.32 14.446,15.83 3.074,6.46 4.187,13.05 3.379,19.83 -0.672,5.72 -2.582,10.61 -5.727,14.77 -3.117,4.19 -7.078,7.06 -11.793,8.71 -4.789,1.6 -11.492,1.95 -20.039,0.83 l -41.934,-5.29 13.735,-115.44 z m 14.468,65.76 5.329,0.7 c 9.644,1.27 16.046,4.19 19.164,8.99 3.14,4.83 4.382,9.88 3.75,15.4 -0.61,4.76 -2.547,8.27 -5.832,10.65 -3.313,2.45 -9.539,3.05 -18.661,1.88 l -8.109,-1.03 4.359,-36.59 z m 119.766,-49.21 23.512,2.05 -8.512,99.95 40.301,3.66 -1.367,15.85 -104.082,-9.32 1.34,-15.84 40.292,3.51 8.516,-99.86 z m 71.176,122.82 4.828,-71.02 c 0.875,-13.45 3.555,-23.11 7.871,-28.92 4.32,-5.93 9.926,-10.12 16.82,-12.72 6.938,-2.7 15.039,-3.62 24.395,-2.96 9.508,0.71 17.215,2.84 23.18,6.7 5.964,3.78 10.379,8.72 13.261,14.79 2.883,6.05 3.848,15.8 2.989,29.23 l -4.899,71.19 -20.367,-1.45 4.918,-72.82 c 0.812,-11.72 -0.633,-19.83 -4.25,-24.29 -3.645,-4.38 -8.84,-6.79 -15.473,-7.3 -6.769,-0.51 -12.398,1.16 -16.922,5.06 -4.492,3.89 -7.195,12.27 -8.07,25.09 l -4.859,71.04 -23.422,-1.62 z m 117.555,-105.99 c 12.195,-2.22 22.847,-3.12 31.964,-2.79 15.375,0.57 26.493,4.32 33.332,11.35 6.832,6.98 10.047,15.25 9.747,24.83 -0.235,6.59 -2.145,12.53 -5.692,17.76 -3.66,5.11 -11.758,11.08 -24.492,17.82 l -8.313,4.31 c -7.234,3.83 -11.753,6.9 -13.597,9.18 -1.84,2.3 -2.844,4.82 -2.977,7.54 -0.07,3.55 1.297,6.6 4.188,9.23 2.875,2.66 7.164,4.13 12.824,4.35 6.84,0.22 16.18,-1.69 27.977,-5.64 l -0.61,18.52 c -11.484,2.29 -21.769,3.28 -30.879,2.95 -12.125,-0.43 -21.375,-3.93 -27.676,-10.42 -6.261,-6.39 -9.281,-14.01 -8.976,-22.74 0.234,-6.97 2.41,-13.04 6.465,-18.13 4.054,-5.15 11.625,-10.65 22.679,-16.51 l 7.735,-4.06 c 7.238,-3.8 11.801,-6.96 13.676,-9.54 1.933,-2.47 2.941,-5.44 3.046,-8.63 0.168,-4.24 -1.339,-7.92 -4.492,-11.07 -3.152,-3.11 -8,-4.86 -14.605,-5.1 -3.653,-0.13 -7.672,0.11 -12.063,0.72 -4.351,0.55 -11.019,2.58 -19.961,5.99 l 0.7,-19.92 z m 145.562,3.78 23.477,0.41 -1.938,116.27 -23.527,-0.45 1.988,-116.23 z m 51.776,-0.3 h 18.5 v 88.97 l 27.04,-81.17 h 18.93 l 27.56,79.96 v -87.76 h 21.68 v 116.34 h -27.3 l -28.04,-81.87 -27.23,81.87 h -31.14 v -116.34 z m 141.88,-2.12 23.05,-0.79 1.58,45.54 9.54,-0.4 c 13.4,-0.43 24.15,2.58 32.36,9.06 8.18,6.55 12.46,16.31 12.9,29.24 0.24,6.72 -0.74,12.46 -2.92,16.92 -2.17,4.61 -5.52,8.17 -10.04,10.71 -4.49,2.62 -12.41,4.15 -23.68,4.57 l -38.83,1.36 -3.96,-116.21 z m 25.16,60.64 4.43,-0.15 c 8.6,-0.29 15.04,1.62 19.25,5.7 4.16,4.12 6.34,9.09 6.58,14.85 0.09,3.28 -0.44,6.2 -1.65,8.95 -1.18,2.6 -3.08,4.77 -5.7,6.39 -2.64,1.67 -6.9,2.52 -12.8,2.79 l -8.8,0.25 -1.31,-38.78 z m 58.35,-65.05 17.1,-0.94 13.29,30.4 46.64,-2.53 10.15,-31.6 24.08,-1.34 -37.96,118.5 -23.51,1.32 -49.79,-113.81 z m 36.95,44.57 35.01,-1.86 -15.11,47.19 -19.9,-45.33 z m 118.36,-54.84 23.48,-2.1 50.06,112.25 -16.86,1.44 -38.83,-86.79 -24.58,92.58 -25.02,2.22 31.75,-119.6 z m 79.73,-10.45 23.39,-2.58 11.78,115.71 -23.34,2.56 -11.83,-115.69 z m 51.72,-5.36 46.13,-6.7 c 13.51,-1.91 24.46,-0.8 32.97,3.32 8.47,4.09 15.34,10.35 20.67,18.77 5.22,8.43 8.68,18.38 10.21,29.92 1.65,11.68 0.84,22 -2.27,30.85 -3.12,8.96 -7.94,16.01 -14.61,21.3 -6.57,5.32 -16.31,8.91 -29.21,10.75 l -48.1,6.98 -15.79,-115.19 z m 25.53,12.97 17.39,-2.51 c 9.05,-1.32 16.21,-0.83 21.37,1.34 5.27,2.22 9.72,6.59 13.47,13.07 3.75,6.55 6.16,14.06 7.34,22.57 1.13,8.15 0.72,15.55 -1.14,22.21 -1.84,6.74 -4.96,12.02 -9.28,15.92 -4.42,3.95 -12.33,6.72 -23.72,8.4 l -14.08,2.06 -11.35,-83.06 z m 84.65,-30.53 16.85,-2.71 16.31,28.71 46.14,-7.5 6.86,-32.56 23.89,-3.81 -25.73,121.86 -23.31,3.79 -61.01,-107.78 z m 41.27,40.35 34.65,-5.63 -10.26,48.6 -24.39,-42.97 v 0"
         style="fill:#9b1f3c;fill-opacity:1;fill-rule:evenodd;stroke:none"
         transform="matrix(0.13333333,0,0,-0.13333333,0,489.81333)" />
      <path
         id="path4"
         d="m 1026.65,1087.57 v 0 h -0.03 l -1.13,1.84 c -36.111,56.51 -40.107,109.97 -43.959,160.75 -0.07,1.43 -0.176,10.9 -0.265,23.36 30.344,0.19 60.604,0.12 90.714,-0.38 -0.09,-12.25 -0.17,-21.55 -0.3,-22.98 -3.79,-50.78 -7.81,-104.24 -43.88,-160.75 l -1.15,-1.84 z m 444.48,1910.62 c 38.86,-1.35 80.1,-7.55 112.02,-18.7 -0.14,-2.54 -1.37,-34.35 -2.51,-65.32 -74.3,11.62 -149.1,20.46 -224.11,26.79 0.73,22.45 1.5,44.62 1.53,46.46 32.63,8.96 74.21,12.14 113.07,10.77 z m -113.6,15.11 c 33.53,7.19 74.67,9.41 114.4,7.99 39.73,-1.47 80.57,-6.47 113.54,-16.03 48.87,29.2 55.14,85.54 4.78,109.74 -37.35,7.64 -77.01,13.5 -114.6,14.83 -37.55,1.32 -77.55,-1.72 -115.3,-6.77 -51.86,-20.52 -49.55,-77.18 -2.82,-109.76 z m -775.378,-15.11 c -38.832,-1.35 -80.101,-7.55 -112.027,-18.7 0.133,-2.65 1.402,-36.01 2.609,-67.77 74.266,11.62 149.082,20.4 224.09,26.8 -0.785,23.28 -1.582,46.96 -1.617,48.9 -32.629,8.96 -74.23,12.14 -113.055,10.77 z m 444.498,20.82 c -38.892,0 -80.334,-4.68 -112.658,-14.71 0.043,-1.33 0.106,-27.92 0.106,-53.92 37.683,1.1 75.175,1.6 112.552,1.6 37.36,0 74.88,-0.5 112.5,-1.6 0.03,26 0.06,52.59 0.1,53.92 -32.32,10.03 -73.74,14.71 -112.6,14.71 z m -330.9,-5.71 c -33.539,7.19 -74.676,9.41 -114.41,7.99 -39.692,-1.47 -80.602,-6.47 -113.52,-16.03 -48.879,29.2 -55.117,85.54 -4.8,109.74 37.316,7.64 77.023,13.5 114.57,14.83 37.586,1.32 77.594,-1.72 115.34,-6.77 51.89,-20.52 49.547,-77.18 2.82,-109.76 z m -59.066,-1211.85 40.406,505.54 c -11.055,-0.44 -22.117,0.06 -32.805,0.52 h -0.566 c -11.758,0.52 -20.5,14.77 -15.375,25.16 5.133,10.52 11.019,21.38 17.789,31.3 7.195,10.48 15.437,20.16 25.195,28.01 4.246,3.38 8.707,5.69 13.129,7.02 l 0.731,9.06 -196.032,0.89 2.676,-37.34 c 18.965,-8.68 35.441,-22.28 51.023,-35.08 l -0.042,-0.06 c 0.507,-0.44 1.05,-0.87 1.55,-1.26 v 0 0 c 0.27,-0.23 0.535,-0.42 0.84,-0.65 8.465,-7.87 7.563,-21.94 -2.043,-26.46 -0.918,-0.45 -1.847,-0.86 -2.758,-1.32 -2.066,-0.93 -4.125,-1.9 -6.164,-2.88 -2.277,1.91 -5.125,4.2 -8.535,6.96 l -0.062,-0.07 c 0.832,-0.62 4.757,-3.74 8.57,-6.89 -1.438,-0.69 -2.953,-1.38 -4.453,-2.12 0.23,-0.06 0.496,-0.16 0.73,-0.22 3.223,-1.47 5.832,-2.71 7.981,-3.72 3.379,-1.68 5.832,-2.85 7.5,-3.69 h 0.066 c 11.293,-5.57 13.973,-21.47 4.688,-28.21 -4.95,-3.55 -10.039,-7.19 -15.075,-10.64 10.188,-4 15.379,-17.53 9.18,-25.88 -5.09,-6.76 -15.945,-20.26 -27.906,-30.56 -2.375,-2.09 -4.918,-4.03 -7.469,-5.87 -1.547,-1.11 -3.047,-2.16 -4.594,-3.06 l 0.102,-1.67 0.035,-0.33 0.606,-8.3 c 6.296,-112.57 19.226,-263.25 28.808,-386.33 5.266,0.36 11.293,0 18.117,-1.65 24.028,-5.48 63.789,12.63 84.157,9.8 z m -92.321,533.76 c -2.015,1.62 37.789,-30.78 0.84,-0.65 -0.305,0.23 -0.57,0.51 -0.84,0.65 z m -10.125,-31.31 c 14.477,-11.79 7.305,-5.99 -0.027,0 v 0 h 0.027 z m 346.797,119 c -11.492,-1.55 -22.449,-4.96 -32.734,-8.22 -27.235,-8.5 -50.176,-15.8 -67.973,17.19 -0.223,0.44 0.375,0.95 0.77,0.64 26.199,-17.42 54.511,-8.58 79.871,-0.58 21.777,6.76 41.406,12.97 55.773,1.25 0.207,-0.14 0.238,-0.43 0.063,-0.67 -0.637,-0.71 -5.395,-1.69 -11.348,-2.99 -8.582,-1.84 -19.734,-4.26 -24.289,-6.62 h -0.133 z M 760.738,1964.34 c 1,2.58 5.16,2.46 5.957,-0.19 16.418,-54.73 48.172,-105.32 92.125,-141.54 36.047,-29.76 80.235,-49.92 130.883,-54.91 -10.32,6.08 -20.5,14.85 -28.812,25.6 -10.746,13.84 -18.457,31.02 -19.461,50.21 -1.035,19.07 4.625,40.03 20.672,61.38 19.558,25.96 54.538,52.49 111.758,76.91 8.07,4.19 25.89,13.26 42.11,27.78 16.18,14.4 30.95,34.34 33.1,60.39 0.26,2.91 5.15,3.48 6.1,0.64 4.11,-12.2 5.15,-25.16 3.9,-38.45 -0.96,-11.03 -3.48,-22.29 -7,-33.56 29.82,16.27 51.5,44.63 67.08,75.76 28.27,56.58 36.4,122.04 36.61,142.17 0.03,2.51 3.25,3.87 5.23,2.25 4.02,-3.59 8.2,-8.09 11.79,-13.81 0.66,-1.03 1.3,-2.17 1.98,-3.34 1.67,37.61 -2.19,70 -11.3,100.39 -10.21,34.01 -27.07,65.46 -50.28,98.82 -1.3,1.91 0.07,4.57 2.42,4.64 3.31,0.19 6.99,-0.51 11.08,-2.09 1.51,-0.64 3.11,-1.4 4.79,-2.31 -17.21,42.66 -39.99,68.9 -67.86,100.94 -2.99,3.34 -5.97,6.77 -8.42,9.67 -0.43,0.44 -0.77,1.93 -0.64,2.52 2.15,9.35 3.56,14.14 6.77,18.33 2.82,3.68 6.7,6.47 13.54,11.08 -9.21,9.57 -30.65,17.05 -54.51,22.22 -31.42,6.65 -66.73,9.13 -84.58,6.83 8.78,-14.77 12.46,-29.88 12.86,-44.16 0.6,-19.87 -5.16,-37.85 -12.22,-50.1 -1.49,-2.56 -6.31,-0.95 -5.81,1.93 1.34,8.37 4.36,24.77 3.46,42.44 -0.87,17.1 -5.23,35.55 -18.19,49.26 -53.464,5.79 -129.878,-23.69 -178.026,-42.28 -3.574,-1.41 -5.18,-2.01 -6.563,-2.58 1.742,-9.62 0.707,-18.54 -0.261,-27.1 -1.946,-16.59 -3.793,-32.06 17.484,-48.64 11.351,22.07 28.434,24.41 45.121,17.15 11.266,-4.83 22.25,-14.13 30.895,-24.39 8.671,-10.28 15.132,-21.65 17.214,-30.39 2.043,-8.47 0.262,-14.93 -6.796,-16.98 -0.614,-0.41 -1.383,-0.67 -2.247,-0.98 -4.054,-1.16 -12.968,-1.3 -21.984,0 -9.074,1.35 -18.512,4.19 -23.644,8.95 -1.778,1.65 -3.083,3.45 -3.75,5.63 -0.61,1.31 -1.137,2.29 -1.618,3.04 -0.394,-1.64 -0.632,-3.8 -0.699,-5.73 0.539,-8.79 2.317,-17.75 5.567,-25.45 2.613,-6.37 6.16,-11.99 10.652,-16.04 1.711,0.56 3.777,1.23 6.055,2.1 8.113,2.91 18.902,6.74 30.386,8.38 h 0.469 c 7.609,0 15.781,-0.23 24.023,-0.52 26.868,-0.88 55.002,-1.76 71.662,6.08 15.51,7.23 20.97,22.87 5.29,55.3 -1.32,2.65 3.41,5.44 5.29,2.99 29.44,-37.55 17.05,-60.34 -0.2,-73.39 -8.2,-6.25 -17.48,-10.19 -23.72,-12.5 6.74,-4.05 10.49,-9.82 11.93,-16.44 1.47,-6.67 0.49,-14.25 -2.21,-21.78 -1.34,-3.79 -3.11,-7.64 -5.26,-11.32 -0.2,-0.34 -1.27,-1.25 -1.65,-1.37 -38.585,-13.58 -111.448,-45.18 -165.983,-85.44 -32.695,-24.14 -58.723,-51.39 -66.496,-79.62 7.707,4.61 15.609,8 24.183,10.31 10.918,2.95 22.95,3.99 37.118,3.28 2.945,-0.13 3.617,-4.95 0.839,-5.76 -7.902,-2.6 -16.011,-5.73 -23.949,-9.51 -32.734,-15.58 -64.289,-41.57 -83.515,-76.48 -19.133,-34.83 -25.93,-78.62 -9.215,-129.71 2.679,-8.14 5.922,-16.52 9.886,-24.98 3.883,9.74 6.829,20.12 9.778,30.48 2.64,9.48 5.328,18.96 8.812,27.99 z m 179.621,564.51 0.868,1.03 c 0.07,0 0.132,0.13 0.203,0.21 0.07,0.1 0.129,0.18 0.207,0.24 0.07,0.07 0.133,0.19 0.203,0.24 0.098,0 0.156,0.09 0.226,0.23 0.063,0.06 0.141,0.12 0.239,0.19 0.062,0.08 0.129,0.15 0.199,0.31 0.105,0.07 0.195,0.07 0.238,0.19 0,0 0,-0.06 0,0 0.063,0.07 0.192,0.15 0.262,0.22 0.07,0.08 0.133,0.16 0.238,0.26 0.067,0.06 0.172,0.06 0.235,0.21 0,0 0,-0.07 0,0 0.097,0.06 0.203,0.16 0.3,0.23 0.032,0.06 0.129,0.13 0.235,0.19 0.07,0.14 0.172,0.14 0.234,0.25 h 0.027 c 0.071,0.13 0.176,0.19 0.274,0.26 v 0 c 0.074,0.06 0.168,0.13 0.269,0.2 0.098,0.14 0.161,0.14 0.274,0.19 0.09,0.13 0.191,0.21 0.262,0.28 0.101,0.1 0.203,0.17 0.304,0.24 v 0 c 0.09,0.05 0.196,0.18 0.266,0.18 0.105,0.08 0.234,0.15 0.332,0.32 0.062,0.06 0.207,0.13 0.305,0.19 l 0.265,0.17 c 0.133,0.11 0.207,0.17 0.34,0.23 0.133,0.07 0.203,0.22 0.293,0.28 0.102,0.06 0.215,0.13 0.305,0.23 0.133,0.07 0.261,0.12 0.332,0.19 0.105,0.09 0.238,0.15 0.34,0.24 0.097,0.08 0.23,0.1 0.3,0.17 l 0.368,0.2 c 0.101,0.07 0.238,0.13 0.339,0.23 0.098,0.14 0.231,0.21 0.297,0.28 0.168,0.07 0.266,0.13 0.371,0.24 0.129,0.07 0.235,0.12 0.368,0.18 0.097,0.07 0.238,0.15 0.332,0.22 0.105,0.01 0.238,0.12 0.371,0.19 0.109,0.06 0.242,0.14 0.332,0.21 0.133,0 0.269,0.13 0.375,0.23 0.133,0.07 0.261,0.13 0.367,0.2 0.133,0.06 0.266,0.06 0.394,0.14 0.106,0.07 0.247,0.13 0.336,0.18 0.145,0.12 0.278,0.18 0.411,0.23 0.128,0.06 0.261,0.12 0.367,0.18 0.136,0.07 0.226,0.07 0.359,0.18 0.176,0.05 0.277,0.12 0.41,0.21 0.133,0.06 0.266,0.13 0.403,0.18 0.132,0.07 0.265,0.18 0.394,0.23 0.106,0 0.238,0.07 0.371,0.15 0.172,0.07 0.27,0.14 0.438,0.19 0.101,0.07 0.269,0.13 0.402,0.2 0.106,0.08 0.234,0.08 0.41,0.15 0.129,0.06 0.262,0.12 0.367,0.12 0.161,0.07 0.262,0.13 0.422,0.24 0.149,0.06 0.278,0.14 0.41,0.14 0.133,0.07 0.301,0.13 0.438,0.19 0.133,0 0.266,0.07 0.402,0.17 h 0.032 c 0.136,0.07 0.269,0.13 0.402,0.13 0.164,0.07 0.305,0.15 0.437,0.16 0.137,0 0.297,0.07 0.403,0.15 0.164,0.09 0.304,0.09 0.465,0.16 0.132,0.07 0.269,0.07 0.41,0.14 v 0 c 0.16,0.07 0.289,0.07 0.437,0.12 0.16,0.07 0.289,0.18 0.422,0.18 0.176,0.06 0.305,0.13 0.438,0.13 0.175,0.07 0.304,0.14 0.472,0.14 0.098,0 0.231,0.07 0.332,0.07 0.133,0.06 0.239,0.06 0.375,0.12 0.133,0.07 0.196,0.07 0.371,0.07 0.094,0.08 0.227,0.08 0.332,0.15 0.133,0 0.235,0.06 0.368,0.06 0.097,0.06 0.23,0.06 0.363,0.13 h 0.34 c 0.129,0.06 0.269,0.06 0.402,0.14 0.102,0 0.234,0.09 0.332,0.09 0.106,0 0.238,0.08 0.367,0.08 0.133,0.07 0.239,0.07 0.367,0.07 0.106,0.06 0.274,0.06 0.375,0.12 0.133,0 0.223,0 0.329,0.07 0.171,0 0.269,0 0.402,0.06 0.105,0 0.234,0 0.34,0.07 h 0.027 c 0.133,0 0.266,0 0.375,0.1 h 0.371 c 0.129,0.06 0.262,0.06 0.367,0.06 0.133,0 0.262,0.09 0.36,0.09 h 0.043 c 0.101,0 0.261,0.06 0.328,0.06 h 0.039 c 0.133,0 0.23,0 0.367,0.07 h 0.402 c 0.067,0.06 0.239,0.06 0.372,0.06 0.128,0 0.226,0.03 0.359,0.03 h 0.41 c 0.09,0 0.234,0.1 0.332,0.1 h 0.438 c 0.062,0 0.238,0.08 0.328,0.08 h 0.437 c 0.106,0 0.199,0.07 0.332,0.07 h 0.41 0.395 0.402 c 0.106,0 0.239,0.06 0.371,0.06 h 0.375 0.395 0.367 0.438 0.375 0.394 c 0.106,0 0.238,-0.06 0.371,-0.06 h 0.403 0.41 0.359 c 0.141,0 0.301,-0.07 0.434,-0.07 h 0.343 c 0.161,-0.08 0.293,-0.08 0.426,-0.08 h 0.375 c 0.129,-0.1 0.262,-0.1 0.403,-0.1 0.097,0 0.269,0 0.402,-0.03 h 0.394 c 0.106,-0.06 0.274,-0.06 0.375,-0.06 0.168,0 0.301,-0.07 0.399,-0.07 0.129,0 0.277,-0.06 0.437,-0.06 0.102,0 0.2,-0.09 0.368,-0.09 0.101,0 0.269,0 0.402,-0.06 0.133,0 0.234,0 0.367,-0.1 0.133,0 0.305,0 0.395,-0.07 0.148,0 0.281,0 0.41,-0.06 0.133,0 0.269,-0.07 0.375,-0.07 0.133,0 0.293,-0.06 0.426,-0.06 0.144,-0.06 0.277,-0.06 0.367,-0.13 0.137,0 0.304,-0.08 0.41,-0.08 0.133,-0.09 0.269,-0.09 0.402,-0.17 l 0.528,-0.06 v -0.6 c -0.028,-0.07 -0.028,-0.07 -0.028,-0.14 v -0.07 -0.06 c 0,-0.11 -0.035,-0.11 -0.035,-0.18 v -0.05 c 0,-0.07 0,-0.07 0,-0.14 v -0.07 h -0.027 v -0.07 0 c 0,-0.09 0,-0.09 -0.043,-0.09 v -0.15 l -0.028,-0.09 v -0.07 c 0,0 -0.035,-0.06 -0.035,-0.13 0,0 0,-0.1 -0.035,-0.1 v -0.07 c 0,-0.06 0,-0.06 0,-0.12 -0.031,0 -0.031,-0.07 -0.031,-0.07 0,-0.08 -0.031,-0.08 -0.031,-0.14 -0.039,-0.11 -0.039,-0.11 -0.039,-0.17 l -0.063,-0.07 c 0,-0.06 0,-0.06 0,-0.12 0,0 -0.027,-0.07 -0.07,-0.07 0,-0.08 0,-0.08 -0.035,-0.15 l -0.028,-0.06 c 0,-0.07 0,-0.07 -0.043,-0.12 0,-0.07 -0.027,-0.07 -0.027,-0.14 -0.035,0 -0.035,-0.08 -0.035,-0.08 h -0.028 l -0.039,-0.12 v -0.11 h -0.031 c 0,-0.07 0,-0.07 -0.039,-0.12 0,-0.07 0,-0.07 -0.027,-0.13 0,0 0,-0.09 0,-0.16 h -0.035 l -0.028,-0.05 c -0.043,-0.11 -0.07,-0.11 -0.07,-0.18 0,0 0,-0.06 -0.035,-0.06 l -0.028,-0.12 h -0.043 c 0,-0.05 0,-0.05 -0.027,-0.11 0,0 -0.035,-0.12 -0.035,-0.17 -0.039,0 -0.039,-0.06 -0.039,-0.06 h -0.031 c -0.035,-0.07 -0.067,-0.15 -0.067,-0.15 l -0.062,-0.13 -0.043,-0.06 c -0.028,-0.07 -0.028,-0.17 -0.028,-0.17 -0.035,-0.06 -0.035,-0.13 -0.062,-0.13 -0.043,-0.07 -0.043,-0.07 -0.07,-0.15 0,0 -0.036,-0.06 -0.063,-0.06 0,-0.07 -0.043,-0.07 -0.043,-0.18 -0.027,-0.01 -0.027,-0.01 -0.062,-0.08 l -0.067,-0.15 c 0,0 -0.035,-0.06 -0.07,-0.06 l -0.035,-0.12 v 0 c -0.028,-0.11 -0.071,-0.11 -0.071,-0.17 h -0.027 l -0.062,-0.14 c -0.043,0 -0.043,-0.07 -0.071,-0.07 -0.035,-0.07 -0.035,-0.14 -0.035,-0.14 h -0.027 c 0,-0.1 0,-0.1 -0.039,-0.16 0,-0.07 -0.028,-0.07 -0.067,-0.13 0,0 -0.031,-0.07 -0.066,-0.07 -0.043,-0.07 -0.043,-0.07 -0.07,-0.14 0,-0.02 -0.036,-0.02 -0.063,-0.1 -0.043,0 -0.043,-0.09 -0.07,-0.15 -0.035,0 -0.063,-0.09 -0.063,-0.09 -0.039,-0.07 -0.039,-0.12 -0.066,-0.12 -0.035,-0.07 -0.035,-0.07 -0.066,-0.07 h -0.04 c 0,-0.1 -0.027,-0.17 -0.027,-0.17 -0.043,-0.06 -0.07,-0.06 -0.105,-0.12 0,0 -0.043,-0.07 -0.043,-0.15 0,0 -0.063,-0.07 -0.09,-0.07 0,-0.06 0,-0.12 0,-0.12 h -0.067 c -0.035,-0.11 -0.035,-0.11 -0.062,-0.11 -0.043,-0.06 -0.043,-0.12 -0.07,-0.12 -0.036,-0.05 -0.071,-0.05 -0.071,-0.11 0,0 -0.062,-0.07 -0.105,-0.07 0,-0.06 -0.028,-0.16 -0.063,-0.16 l -0.066,-0.14 c -0.035,-0.08 -0.035,-0.08 -0.063,-0.08 -0.043,-0.06 -0.07,-0.06 -0.07,-0.13 h -0.035 l -0.027,-0.05 v 0 c -0.043,-0.07 -0.071,-0.14 -0.071,-0.14 v 0 c -0.035,-0.1 -0.07,-0.1 -0.105,-0.17 -0.028,0 -0.067,-0.08 -0.098,-0.08 -0.031,-0.06 -0.031,-0.06 -0.062,-0.13 -0.039,-0.05 -0.039,-0.05 -0.075,-0.05 -0.027,-0.07 -0.07,-0.07 -0.097,-0.14 0,0 -0.063,-0.07 -0.063,-0.14 0,0 -0.043,-0.06 -0.07,-0.06 -0.039,-0.07 -0.07,-0.07 -0.102,-0.13 l -0.031,-0.07 c -0.039,-0.06 -0.066,-0.06 -0.101,-0.17 -0.028,0 -0.071,0 -0.071,-0.07 -0.062,-0.07 -0.105,-0.07 -0.133,-0.07 0,-0.06 -0.035,-0.06 -0.07,-0.13 -0.031,0 -0.062,-0.06 -0.062,-0.13 h -0.039 c 0,0 -0.028,0 -0.028,-0.1 -0.035,-0.06 -0.062,-0.06 -0.062,-0.06 -0.071,-0.07 -0.071,-0.07 -0.106,-0.15 -0.027,0 -0.07,-0.06 -0.07,-0.06 -0.063,0 -0.063,-0.03 -0.102,-0.1 -0.031,0 -0.062,0 -0.062,-0.08 -0.07,0 -0.07,-0.08 -0.141,-0.08 -0.027,-0.07 -0.027,-0.07 -0.062,-0.15 -0.028,0 -0.071,-0.07 -0.071,-0.07 v 0 c -0.027,-0.06 -0.027,-0.06 -0.027,-0.06 h -0.035 c -0.027,-0.06 -0.066,-0.06 -0.098,-0.06 -0.039,-0.07 -0.066,-0.07 -0.066,-0.17 -0.035,0 -0.078,-0.06 -0.106,-0.06 -0.035,-0.07 -0.062,-0.07 -0.105,-0.07 0,-0.08 -0.027,-0.08 -0.063,-0.15 -0.027,0 -0.07,-0.06 -0.07,-0.06 h -0.027 c -0.031,0 -0.067,-0.06 -0.102,-0.06 0,-0.07 -0.027,-0.07 -0.027,-0.07 -0.043,-0.07 -0.07,-0.07 -0.106,-0.16 h -0.043 -0.062 c 0,-0.05 -0.027,-0.05 -0.07,-0.12 -0.028,0 -0.063,0 -0.09,-0.05 l -0.039,-0.07 h -0.028 c -0.035,0 -0.07,-0.06 -0.07,-0.06 h -0.035 c -0.027,0 -0.027,-0.08 -0.07,-0.08 h -0.028 c 0,-0.1 -0.035,-0.1 -0.035,-0.1 v 0 c -0.07,0 -0.07,-0.08 -0.07,-0.08 h -0.035 c -0.028,-0.06 -0.067,-0.06 -0.067,-0.06 -0.027,-0.07 -0.062,-0.07 -0.09,-0.07 l -0.07,-0.05 h -0.043 c 0,0 -0.027,-0.07 -0.062,-0.07 0,0 -0.071,0 -0.098,-0.06 0,0 -0.063,0 -0.102,-0.08 0,0 -0.035,0 -0.062,-0.1 l -0.203,-0.06 c -0.106,-0.08 -0.235,-0.08 -0.332,-0.08 v 0 c -0.106,-0.07 -0.211,-0.07 -0.309,-0.07 v 0 c -0.062,-0.06 -0.191,-0.06 -0.297,-0.06 v 0 c -0.14,-0.06 -0.242,-0.06 -0.304,-0.06 -0.098,0 -0.204,0 -0.332,-0.04 -0.071,0 -0.204,-0.09 -0.309,-0.09 v 0 c -0.098,0 -0.199,0 -0.305,-0.08 -0.062,0 -0.195,0 -0.293,-0.06 -0.101,0 -0.199,0 -0.304,-0.07 h -0.332 c -0.106,-0.06 -0.196,-0.06 -0.274,-0.06 -0.094,0 -0.226,-0.07 -0.297,-0.07 h -0.035 c -0.098,0 -0.199,-0.06 -0.332,-0.06 -0.105,0 -0.176,0 -0.266,-0.08 h -0.343 c -0.133,0 -0.196,-0.07 -0.293,-0.07 h -0.305 -0.035 c -0.098,-0.1 -0.203,-0.1 -0.266,-0.1 -0.136,0 -0.242,-0.06 -0.375,-0.06 h -0.293 c -0.066,-0.07 -0.207,-0.07 -0.34,-0.07 -0.093,0 -0.199,0 -0.296,-0.06 h -0.305 c -0.133,0 -0.238,0 -0.328,-0.07 h -0.305 c -0.105,0 -0.234,-0.06 -0.336,-0.06 v 0 h -0.305 c -0.101,0 -0.199,-0.07 -0.304,-0.07 h -0.367 c -0.063,-0.1 -0.204,-0.1 -0.305,-0.1 h -0.332 c -0.067,0 -0.195,0 -0.301,-0.06 h -0.297 -0.301 -0.043 c -0.128,0 -0.226,-0.08 -0.332,-0.08 h -0.304 c -0.09,0 -0.223,0 -0.328,-0.03 h -0.305 -0.332 -0.332 -0.309 -0.297 c -0.097,0 -0.23,-0.07 -0.332,-0.07 h -0.308 -0.028 -0.304 -0.332 -0.301 c -0.109,0 -0.242,0 -0.305,-0.07 h -0.332 -0.308 -0.063 -0.305 -0.296 -0.301 -0.332 -0.305 -0.336 c -0.101,0 -0.207,-0.07 -0.34,-0.07 h -0.289 -0.308 -0.305 -0.332 -0.332 -0.301 c -0.109,0.07 -0.199,0.07 -0.305,0.07 h -0.304 -0.336 -0.305 -0.324 -0.309 v 0 h -0.332 -0.304 -0.266 -0.305 -0.027 c -0.106,0.07 -0.199,0.07 -0.305,0.07 h -0.308 -0.297 -0.297 -0.301 -0.043 -0.262 c -0.132,0 -0.238,0.07 -0.332,0.07 h -0.308 -0.305 -0.293 -0.273 -0.293 -0.309 c -0.101,0 -0.199,0.03 -0.305,0.03 h -0.296 -0.297 c -0.106,0 -0.168,0 -0.274,0.08 h -0.297 -0.304 -0.301 c -0.07,0 -0.164,0.06 -0.27,0.06 h -0.3 -0.27 c -0.105,0 -0.168,0 -0.301,0.1 h -0.297 -0.238 -0.031 c -0.07,0 -0.168,0 -0.274,0.07 h -0.261 -0.266 -0.039 -0.266 c -0.07,0.06 -0.171,0.06 -0.261,0.06 h -0.278 v 0 c -0.097,0 -0.203,0.07 -0.265,0.07 h -0.305 -0.266 c -0.07,0 -0.132,0 -0.23,0.06 h -0.277 -0.262 c -0.07,0 -0.176,0.07 -0.266,0.07 h -0.269 -0.239 c -0.101,0 -0.199,0.06 -0.261,0.06 h -0.266 c -0.074,0 -0.172,0.1 -0.242,0.1 h -0.035 -0.227 -0.277 -0.223 c -0.105,0 -0.176,0.07 -0.277,0.07 h -0.231 v 0 h -0.238 c -0.101,0 -0.172,0.08 -0.234,0.08 h -0.231 -0.234 -0.043 c -0.063,0.06 -0.133,0.06 -0.191,0.06 h -0.04 -0.191 l -1.348,0.13 z m 525.011,-917.81 c -61.91,6.95 -169.81,15.04 -171.79,99.62 -0.33,16.01 3.85,48.01 13.17,65.76 0.43,0.82 -0.57,1.87 -1.48,1.48 -9.41,-4.34 -16.45,-12.27 -21.47,-20.99 -6.83,-11.85 -11.63,-25.15 -11.96,-32.18 -39.33,15.54 -88.51,18.58 -137.72,21.64 -84.86,5.26 -161.866,23.32 -168.198,90.99 -5.598,59.62 53.058,86.53 108.298,115.77 23.46,12.48 29.25,13.86 43.38,26.13 0.07,-7.07 -0.6,-12.52 -1.7,-16.88 -1.2,-5 -2.95,-8.75 -4.69,-12.36 -0.33,-0.85 0.44,-1.72 1.31,-1.52 15.31,3.38 55.34,24.42 76.5,40.47 15.55,11.76 29.56,26.26 37.52,42.61 37.63,-63.31 94.88,-87.91 147.17,-106.02 44.36,-15.32 87.21,-30.15 116.75,-71.39 0.39,-0.57 1.27,-0.63 1.77,-0.22 28.07,27.85 13.53,96.56 -17.98,177.36 -31.42,80.49 -82.05,207.03 -121.44,283.32 -51.99,100.89 6.43,204.34 126.43,210.37 51.65,2.68 91.96,-21.51 118.38,-57.52 24.29,-33.1 32,-80.73 30.02,-128.08 v -0.06 0.06 -0.06 c -4.79,-68.11 -12.4,-100.84 -18.12,-167.65 -5.37,-62.23 -11.23,-124.77 -17.76,-189.09 -5.46,78.03 -21.9,133.97 -34.97,178.49 -21.58,73.37 -33.9,115.31 28.11,174.12 0.1,0.11 0.3,0.51 0.3,0.62 6.99,39.97 5.02,72.42 -9.05,97.71 -19,30.79 -56.58,55.15 -90.48,55.39 -60.23,0.5 -109.41,-35.72 -110.99,-96.15 -2.44,-27.91 30.22,-92.09 48.57,-129.35 23.26,-47.29 126.37,-294.67 132.57,-345.88 4.95,-40.53 10.18,-79.39 9.91,-115.84 -0.33,-46.7 -13.6,-89.31 -36.92,-126.09 -17.28,-27.65 -38.55,-49.13 -63.44,-64.58 z m -774.55,938.08 c 22.11,-11.95 40.7,-23.28 39.836,-58.65 -0.57,-22.73 -21.777,-56.43 -39.836,-63.9 H 478.832 c -18.055,7.47 -39.254,41.17 -39.824,63.9 -0.875,35.37 17.722,46.7 39.824,58.65 H 690.82 Z m -16.91,-486.38 c 2.27,26.2 4.985,51.63 7.727,77.02 2.687,25.28 5.398,50.5 7.648,76.38 16.11,-10.46 55.141,-21.12 81.809,-25.01 7.191,-1.12 16.906,-1.6 21.636,-3.93 -10.828,-11.48 -25.125,-34.62 -27.671,-44.96 -2.75,-11.24 -6.668,-22.66 -9.383,-38.43 -9.117,-6.53 -17.52,-14.87 -24.957,-25.6 -7.27,-10.62 -13.602,-23.59 -18.762,-39.5 -0.703,0.51 -1.578,1.18 -2.508,1.88 -9.047,6.97 -24.687,15.86 -35.539,22.15 z m -42.519,-443.5 c -14.84,-2.86 -25.254,-2.48 -38.426,-7.29 -28.473,-10.4 -53.93,19.21 -42.742,36.91 -35.082,3.94 -45.864,49.46 -20.395,67.03 -30.558,15.23 -31.5,72.36 22.699,59.89 27.383,-6.26 75.211,18.18 91.461,7.17 34.371,-35.51 69.508,20.17 88.641,47.23 17.555,24.8 27.437,49.92 32.594,79.36 5.898,-26.19 33.132,-68.97 77.855,-102.74 34.106,-25.72 78.192,-46.06 131.188,-49.49 -57.461,-35.73 -105.465,-61.97 -163.149,-83.68 -53.996,-23.73 -91.855,-38.99 -179.726,-54.39 z m -91.055,660.35 c -15.27,-11.1 -32.258,-23 -49.242,-31.7 13.34,-1.18 27.445,-4.52 40.429,-7.77 -6.492,-8.7 -23.445,-29.43 -39.054,-37.63 -20.903,-11.04 -37.414,21.77 -27.61,37.56 -29.601,1.03 -33.832,52.42 -8.597,63.35 -22.078,14.3 -14.012,67.53 18.617,57.92 21.98,-6.57 41.777,-23.14 60.129,-38.25 -16.102,-7.58 -33.199,-15.83 -50.238,-20.55 18.316,-5.58 38.617,-14.59 55.566,-22.93 z m 102.348,44.45 c 9.679,19.76 22.004,40.6 39.191,54.4 28.781,22.97 64.316,-35.67 28.344,-48.87 -20.742,-7.62 -45.031,-6.56 -67.535,-5.53 z m -106.336,285.84 c -34.399,117.56 70.359,187.44 139.972,192.54 190.746,13.99 301.723,-33.12 513.68,-45.98 78.79,-0.69 155.74,2.65 235.07,35.52 -18.13,-56.07 -261.7,-99.73 -361.36,-100.3 -35.18,-0.23 -72.624,2.18 -107.136,7.53 -21.445,3.27 -342.871,53 -333.121,-52.05 0.871,-9.62 13.402,-9.54 17.258,-7.94 59.051,24.15 100.867,43.19 162.574,45.33 123.102,4.54 207.825,-32.86 343.205,-5.12 -94.54,-61.96 -335.205,-40.35 -383.877,-55.06 -49.547,-14.89 -89.343,-41.99 -133.867,-54.62 -71.961,-20.42 -89.988,32.01 -92.398,40.15 z m 604.302,420.19 c -33.22,8.45 -74.3,12.07 -114,12.07 -39.752,0 -80.755,-3.62 -114.06,-12.07 -47.844,30.91 -52.121,87.44 -0.973,109.87 37.555,6.32 77.41,10.8 115.033,10.8 37.59,0 77.43,-4.48 115.01,-10.8 51.12,-22.43 46.84,-78.96 -1.01,-109.87 z m -114,-163.54 c -218.58,0 -454.15,-17.65 -666.709,-67.4 18.59,-338.62 0.411,-1019.47 155.039,-1202.04 -19.269,-3.07 -38.523,-6.46 -57.75,-9.98 -111.625,184.49 -124.257,644.9 -134.062,999.4 -2.582,93.62 -4.93,179.95 -8.574,251.78 l -0.41,0.57 0.41,0.14 c 232.246,54.33 474.082,74.66 712.056,74.66 237.98,0 479.75,-20.33 711.94,-74.66 l 0.54,-0.14 -0.04,-0.57 c -3.95,-71.83 -6.32,-158.16 -8.9,-251.78 -9.79,-354.5 -22.59,-814.91 -133.8,-999.4 -19.43,3.52 -38.83,6.91 -58.16,9.98 154.83,182.57 136.54,863.42 155.1,1202.04 -212.59,49.75 -448.12,67.4 -666.68,67.4 z m 381.53,-1800.88 v 0.06 l -0.06,-0.06 -1.07,1.88 c -34.11,57.65 -36.25,111.32 -38.33,162.13 -0.07,1.62 0.24,12.84 0.63,27.15 30.42,-2.97 60.57,-6.2 90.43,-9.76 -0.44,-11.08 -0.88,-19.17 -0.98,-20.46 -5.56,-50.69 -11.39,-104.04 -49.41,-159.12 l -1.21,-1.82 z m -763.051,0 -0.031,0.06 v -0.06 l -1.243,1.82 c -37.984,55.08 -43.855,108.43 -49.414,159.12 -0.164,1.38 -0.539,10.28 -1.07,22.21 30.18,3.61 60.332,6.8 90.477,9.61 0.437,-14.98 0.742,-27.03 0.679,-28.75 -2.043,-50.81 -4.23,-104.48 -38.332,-162.13 l -1.066,-1.88 v 0"
         style="fill:#171818;fill-opacity:1;fill-rule:evenodd;stroke:none"
         transform="matrix(0.13333333,0,0,-0.13333333,0,489.81333)" />
    </g>
  </g>
</svg>
